PathFileType  4	(X/Y/Z) C:\Users\antoi\Documents\MyRepositories\mobilecap\ResultsAnalysis
DataRate	CameraRate	NumFrames	NumMarkers	Units	OrigDataRate	OrigDataStartFrame	OrigNumFrames
100.0	100.0	4	51	mm	100.0	523	1394
Frame#	Time	r_knee			r_shank_antsup			r_ankle			r_calc			r_5meta			r_toe			L_knee			L_shank_antsup			L_ankle			L_calc			L_5meta			L_toe			r_sh2			r_sh3			r_sh4			L_sh2			L_sh3			r_thigh1			r_thigh2			r_thigh3			r_thigh4			r_thigh5			L_thigh1			L_thigh2			L_thigh3			L_thigh4			r.ASIS			r.PSIS			L.ASIS			L.PSIS			C7			R_Shoulder			L_Shoulder			R_Sternum			L_Sternum			R_humerus			R_elbow_med			R_elbow_lat			R_forearm			R_wrist_radius			R_wrist_ulna			L_humerus			L_elbow_med			L_elbow_lat			L_forearm			L_wrist_radius			L_wrist_ulna			R_HJC			L_HJC			R_HJC_reg			L_HJC_reg			
		X1	Y1	Z1	X2	Y2	Z2	X3	Y3	Z3	X4	Y4	Z4	X5	Y5	Z5	X6	Y6	Z6	X7	Y7	Z7	X8	Y8	Z8	X9	Y9	Z9	X10	Y10	Z10	X11	Y11	Z11	X12	Y12	Z12	X13	Y13	Z13	X14	Y14	Z14	X15	Y15	Z15	X16	Y16	Z16	X17	Y17	Z17	X18	Y18	Z18	X19	Y19	Z19	X20	Y20	Z20	X21	Y21	Z21	X22	Y22	Z22	X23	Y23	Z23	X24	Y24	Z24	X25	Y25	Z25	X26	Y26	Z26	X27	Y27	Z27	X28	Y28	Z28	X29	Y29	Z29	X30	Y30	Z30	X31	Y31	Z31	X32	Y32	Z32	X33	Y33	Z33	X34	Y34	Z34	X35	Y35	Z35	X36	Y36	Z36	X37	Y37	Z37	X38	Y38	Z38	X39	Y39	Z39	X40	Y40	Z40	X41	Y41	Z41	X42	Y42	Z42	X43	Y43	Z43	X44	Y44	Z44	X45	Y45	Z45	X46	Y46	Z46	X47	Y47	Z47	X48	Y48	Z48	X49	Y49	Z49	X50	Y50	Z50	X51	Y51	Z51	

523	5.22000000	-149.59445	460.49527	-442.93549	-92.98563	391.73168	-456.23463	-257.46426	94.01021	-467.56278	-332.32887	63.36766	-499.03900	-159.50401	46.39213	-430.35077	-111.92694	70.07222	-487.19894	-152.07108	460.79746	-874.01670	-105.18055	375.68904	-886.12758	-248.79530	97.31273	-867.03619	-318.20208	62.06945	-826.47376	-147.20515	42.99504	-913.15206	-104.18577	67.09520	-860.89117	-147.43849	289.94147	-439.23419	-162.14487	423.59345	-426.65738	-212.24835	323.40158	-425.20092	-189.62056	406.78205	-886.13150	-222.78917	288.52855	-894.88151	-434.89584	598.91056	-464.20912	-327.97044	564.79891	-457.12734	-326.92483	504.12706	-425.83764	-470.65430	491.53105	-448.20716	-357.87654	458.65752	-439.17351	-405.07287	554.28460	-882.20099	-271.07520	534.10700	-882.30071	-428.14404	444.73054	-849.58693	-287.63485	428.51328	-859.88130	-417.94502	604.19357	-538.94234	-576.07696	682.20228	-614.51368	-408.73288	602.03186	-772.31760	-577.27885	689.09166	-704.50150	-318.04633	1007.87329	-641.62632	-218.61497	972.39259	-487.82287	-213.63245	970.17870	-793.92339	-199.10711	916.14708	-613.89880	-191.89045	915.93883	-649.74901	-181.18520	885.62107	-400.49622	-136.77850	668.74974	-386.47984	-105.22247	717.37557	-328.03004	-28.16706	784.80310	-422.09490	33.55059	840.84649	-515.66216	60.14113	818.11059	-520.62998	-177.01344	892.89263	-876.93136	-135.86456	656.87568	-912.65319	-114.27111	721.22818	-967.12946	-48.20333	765.50693	-892.01551	49.58711	807.64235	-791.35173	74.01115	787.73539	-803.86019	-503.30057	541.94276	-557.14935	-497.57769	546.69569	-763.48441	-494.89107	545.57330	-574.31434	-496.94506	557.34175	-728.00678	
524	5.23000000	-150.62543	460.59452	-443.07534	-93.66387	392.16713	-456.27365	-257.42248	94.12863	-467.51218	-332.32746	63.34201	-499.06842	-159.49338	46.39582	-430.35078	-111.94896	70.10519	-487.21326	-153.11242	460.53317	-874.94452	-105.82286	375.86980	-886.91051	-248.79627	97.31549	-867.24151	-318.19306	62.05948	-826.47323	-147.21863	42.94650	-913.13877	-104.17733	67.06659	-860.88116	-147.78415	289.99703	-439.25721	-162.87285	423.98837	-426.42095	-212.95070	323.45335	-425.51982	-190.32973	406.65003	-887.06209	-223.08282	288.24417	-895.44389	-438.09450	594.75619	-465.19945	-330.35765	562.02064	-458.14282	-328.64729	501.57706	-426.30673	-472.18530	486.84686	-448.87267	-359.11483	456.02080	-439.07469	-408.15438	550.51406	-884.96459	-273.17939	532.08901	-883.45138	-428.87640	440.08200	-850.30124	-288.06254	426.05290	-860.58319	-421.19678	600.21476	-539.21636	-579.98898	675.50621	-615.50811	-411.82491	597.76318	-772.87666	-581.24363	682.28138	-705.48582	-324.38439	1003.99056	-642.83686	-225.11911	969.24460	-488.85141	-219.49979	966.90165	-794.82614	-204.91728	912.99962	-614.74445	-199.01132	913.54107	-650.76924	-187.38167	882.43676	-401.35149	-142.28040	665.67016	-387.25682	-111.23558	714.88047	-327.84751	-33.84765	781.99006	-422.56499	28.03598	838.03889	-516.07537	54.75878	815.31392	-521.09530	-181.71097	889.73601	-877.48255	-138.78368	653.07113	-911.29272	-117.11570	717.96062	-966.07554	-51.51969	763.17841	-891.68630	45.44796	805.81527	-790.42367	70.02058	786.13799	-802.83116	-505.48749	536.61738	-557.63507	-499.53220	541.01002	-763.97104	-497.11751	540.13922	-574.63224	-499.26493	551.72590	-728.53131	
525	5.24000000	-151.72906	460.69574	-443.32808	-94.40401	392.58875	-456.48555	-257.35014	94.22301	-467.42970	-332.31565	63.31928	-499.08776	-159.46331	46.44474	-430.39090	-111.95726	70.10664	-487.22002	-154.24353	460.41111	-875.73457	-106.48495	376.16724	-887.67498	-248.81771	97.28854	-867.35881	-318.19341	62.03217	-826.48527	-147.24492	42.95566	-913.15378	-104.18574	67.08294	-860.90291	-148.16655	290.11036	-439.49759	-163.50996	424.26803	-426.46492	-213.54922	323.63170	-425.81923	-191.09025	406.64932	-887.83132	-223.43239	288.08920	-895.78661	-441.02378	590.58058	-466.01379	-332.83151	559.05348	-459.06451	-330.25695	499.02842	-426.85472	-473.58781	482.31943	-449.40423	-360.13128	453.06970	-439.48577	-411.47608	547.03867	-888.25435	-275.31473	530.08058	-884.30820	-429.53881	435.64313	-850.92939	-288.53969	423.82147	-861.46735	-425.11051	596.61301	-538.15131	-583.90672	668.90785	-616.51742	-414.88573	593.71782	-773.88040	-585.33491	675.65293	-706.23618	-331.10790	1000.46554	-643.89712	-231.63719	966.45805	-489.59970	-225.83113	963.99904	-795.73866	-211.03487	910.23895	-615.71514	-206.03637	911.02701	-651.81392	-193.81688	879.69412	-402.23146	-148.02021	663.04040	-388.15972	-117.55624	712.93888	-327.41240	-39.76032	779.52527	-423.07950	22.29183	835.53761	-516.51185	48.97480	812.82824	-521.58698	-186.87238	886.77493	-877.68834	-141.46449	650.51805	-910.45947	-120.41051	715.26474	-965.30921	-55.44247	761.19069	-891.05521	40.88360	804.50886	-789.56808	65.51653	784.95017	-802.18504	-508.05130	531.55609	-557.82459	-501.44370	535.51116	-764.15152	-499.66339	534.29405	-573.90364	-502.13622	545.96828	-729.18499	
526	5.25000000	-152.87933	460.80025	-443.77205	-95.20131	393.08567	-456.83691	-257.33701	94.25052	-467.43947	-332.32833	63.29808	-499.11501	-159.42420	46.53458	-430.45251	-111.94173	70.13810	-487.26117	-155.39963	460.36114	-876.45065	-107.16061	376.45283	-888.17368	-248.86746	97.21819	-867.34057	-318.20568	62.00462	-826.49372	-147.27991	43.00736	-913.16880	-104.20376	67.10912	-860.82993	-148.55284	290.53309	-439.91311	-164.23904	424.32860	-426.93398	-213.97596	323.67500	-425.96291	-191.90229	406.71381	-888.34269	-223.93819	288.00425	-896.00039	-443.74498	586.28429	-466.94541	-335.28155	556.18711	-459.53929	-331.79660	496.54612	-427.57673	-474.80885	477.84515	-449.86659	-361.01445	449.90094	-440.43218	-413.82882	543.06267	-888.81861	-277.49328	528.14666	-884.86981	-430.16307	431.39797	-851.57759	-289.02402	421.76497	-862.26181	-428.52335	591.74160	-538.24503	-587.83692	662.45642	-617.41004	-418.25380	588.63331	-775.20435	-589.46915	669.12899	-706.86583	-338.24311	997.21864	-644.96333	-238.26414	963.94142	-490.29207	-232.65539	961.44475	-796.75478	-217.49377	907.99381	-616.70241	-211.79100	908.16473	-652.78582	-200.49422	877.32694	-403.00703	-153.98651	660.94528	-389.26066	-123.91338	710.92614	-327.75985	-45.91796	777.42081	-423.77493	16.25229	833.37390	-517.11250	42.85067	810.73113	-522.04934	-192.47960	884.26350	-878.04842	-144.61463	648.62800	-911.02522	-124.03229	713.50462	-965.67475	-59.92795	759.54659	-890.22117	35.94014	803.73163	-788.84560	60.54585	784.26277	-801.83701	-510.81884	525.89230	-558.43817	-504.30389	529.65942	-764.77280	-502.47991	528.23186	-574.07280	-505.32673	539.87495	-730.16621	
